<svg width="135" height="28" viewBox="0 0 135 28" fill="none" xmlns="http://www.w3.org/2000/svg">
<path d="M22.1788 12.4343L23.6938 13.3949C23.7871 13.454 23.8644 13.5378 23.9181 13.6379C23.9718 13.7381 24 13.8513 24 13.9664C24 14.0816 23.9718 14.1948 23.9181 14.2949C23.8644 14.3951 23.7871 14.4788 23.6938 14.538L11.9994 21.959L0.306244 14.538C0.212858 14.4788 0.135558 14.3951 0.0818853 14.2949C0.0282125 14.1948 0 14.0816 0 13.9664C0 13.8513 0.0282125 13.7381 0.0818853 13.6379C0.135558 13.5378 0.212858 13.454 0.306244 13.3949L1.81999 12.4343L11.9994 18.896L22.1788 12.4343ZM22.1788 18.6961L23.6938 19.6567C23.7871 19.7159 23.8644 19.7996 23.9181 19.8998C23.9718 20 24 20.1132 24 20.2283C24 20.3435 23.9718 20.4566 23.9181 20.5568C23.8644 20.657 23.7871 20.7407 23.6938 20.7999L12.6467 27.8105C12.4511 27.9345 12.2274 28 11.9994 28C11.7714 28 11.5476 27.9345 11.3521 27.8105L0.306244 20.8012C0.212858 20.7421 0.135558 20.6583 0.0818853 20.5581C0.0282125 20.458 0 20.3448 0 20.2296C0 20.1145 0.0282125 20.0013 0.0818853 19.9011C0.135558 19.801 0.212858 19.7172 0.306244 19.6581L1.81999 18.6975L11.9994 25.1579L22.1788 18.6961ZM12.6479 0.188936L23.6925 7.19959C23.7859 7.25873 23.8632 7.34248 23.9169 7.44265C23.9705 7.54282 23.9987 7.656 23.9987 7.77115C23.9987 7.8863 23.9705 7.99948 23.9169 8.09965C23.8632 8.19983 23.7859 8.28357 23.6925 8.34272L11.9994 15.7637L0.306244 8.34405C0.212858 8.2849 0.135558 8.20116 0.0818853 8.10099C0.0282125 8.00081 0 7.88763 0 7.77248C0 7.65734 0.0282125 7.54416 0.0818853 7.44398C0.135558 7.34381 0.212858 7.26007 0.306244 7.20092L11.3508 0.190268C11.5467 0.0657715 11.7709 0 11.9994 0C12.2279 0 12.4521 0.0644393 12.6479 0.188936Z" fill="white"/>
<path d="M37.8295 21H32.9908V7.90909H37.8232C39.157 7.90909 40.3054 8.17116 41.2685 8.69531C42.2358 9.2152 42.9815 9.9652 43.5057 10.9453C44.0298 11.9212 44.2919 13.0888 44.2919 14.4482C44.2919 15.8118 44.0298 16.9837 43.5057 17.9638C42.9858 18.9439 42.2422 19.696 41.2749 20.2202C40.3075 20.7401 39.1591 21 37.8295 21ZM36.1548 18.3026H37.7081C38.4411 18.3026 39.0611 18.179 39.5682 17.9318C40.0795 17.6804 40.4652 17.2734 40.7251 16.7109C40.9893 16.1442 41.1214 15.3899 41.1214 14.4482C41.1214 13.5064 40.9893 12.7564 40.7251 12.1982C40.4609 11.6357 40.071 11.2308 39.5554 10.9837C39.044 10.7322 38.4134 10.6065 37.6634 10.6065H36.1548V18.3026ZM48.907 21.1662C48.2805 21.1662 47.7244 21.0618 47.2386 20.853C46.7571 20.6399 46.3757 20.3203 46.0945 19.8942C45.8175 19.4638 45.679 18.9247 45.679 18.277C45.679 17.7315 45.7749 17.2713 45.9666 16.8963C46.1584 16.5213 46.4226 16.2166 46.7592 15.9822C47.0959 15.7479 47.4837 15.571 47.9226 15.4517C48.3615 15.3281 48.8303 15.245 49.3288 15.2024C49.8871 15.1513 50.3366 15.098 50.6776 15.0426C51.0185 14.983 51.2656 14.8999 51.419 14.7933C51.5767 14.6825 51.6555 14.527 51.6555 14.3267V14.2947C51.6555 13.9666 51.5426 13.7131 51.3168 13.5341C51.0909 13.3551 50.7862 13.2656 50.4027 13.2656C49.9893 13.2656 49.657 13.3551 49.4055 13.5341C49.1541 13.7131 48.9943 13.9602 48.9261 14.2756L46.0433 14.1733C46.1286 13.5767 46.348 13.044 46.7017 12.5753C47.0597 12.1023 47.5497 11.7315 48.1719 11.4631C48.7983 11.1903 49.5504 11.054 50.4283 11.054C51.0547 11.054 51.6321 11.1286 52.1605 11.2777C52.6889 11.4226 53.1491 11.6357 53.5412 11.9169C53.9332 12.1939 54.2358 12.5348 54.4489 12.9396C54.6662 13.3445 54.7749 13.8068 54.7749 14.3267V21H51.8345V19.6321H51.7578C51.5831 19.9645 51.3594 20.2457 51.0866 20.4759C50.8182 20.706 50.5007 20.8786 50.1342 20.9936C49.772 21.1087 49.3629 21.1662 48.907 21.1662ZM49.8722 19.1207C50.2088 19.1207 50.5114 19.0526 50.7798 18.9162C51.0526 18.7798 51.2699 18.5923 51.4318 18.3537C51.5938 18.1108 51.6747 17.8295 51.6747 17.5099V16.5767C51.5852 16.6236 51.4766 16.6662 51.3487 16.7045C51.2251 16.7429 51.0888 16.7791 50.9396 16.8132C50.7905 16.8473 50.6371 16.8771 50.4794 16.9027C50.3217 16.9283 50.1705 16.9517 50.0256 16.973C49.7315 17.0199 49.4801 17.0923 49.2713 17.1903C49.0668 17.2884 48.9091 17.4162 48.7983 17.5739C48.6918 17.7273 48.6385 17.9105 48.6385 18.1236C48.6385 18.4474 48.7536 18.6946 48.9837 18.8651C49.218 19.0355 49.5142 19.1207 49.8722 19.1207ZM62.228 11.1818V13.483H56.0341V11.1818H62.228ZM57.3317 8.82955H60.4574V17.9126C60.4574 18.1044 60.4872 18.2599 60.5469 18.3793C60.6108 18.4943 60.7024 18.5774 60.8217 18.6286C60.9411 18.6754 61.0838 18.6989 61.25 18.6989C61.3693 18.6989 61.495 18.6882 61.6271 18.6669C61.7635 18.6413 61.8658 18.62 61.9339 18.603L62.407 20.8594C62.2578 20.902 62.0469 20.9553 61.7741 21.0192C61.5057 21.0831 61.1839 21.1236 60.8089 21.1406C60.076 21.1747 59.4474 21.0895 58.9233 20.8849C58.4034 20.6761 58.005 20.3523 57.728 19.9134C57.4553 19.4744 57.3232 18.9226 57.3317 18.2578V8.82955ZM66.5906 21.1662C65.9641 21.1662 65.408 21.0618 64.9222 20.853C64.4407 20.6399 64.0593 20.3203 63.7781 19.8942C63.5011 19.4638 63.3626 18.9247 63.3626 18.277C63.3626 17.7315 63.4585 17.2713 63.6502 16.8963C63.842 16.5213 64.1062 16.2166 64.4428 15.9822C64.7795 15.7479 65.1673 15.571 65.6062 15.4517C66.0451 15.3281 66.5138 15.245 67.0124 15.2024C67.5707 15.1513 68.0202 15.098 68.3612 15.0426C68.7021 14.983 68.9492 14.8999 69.1026 14.7933C69.2603 14.6825 69.3391 14.527 69.3391 14.3267V14.2947C69.3391 13.9666 69.2262 13.7131 69.0004 13.5341C68.7745 13.3551 68.4698 13.2656 68.0863 13.2656C67.6729 13.2656 67.3406 13.3551 67.0891 13.5341C66.8377 13.7131 66.6779 13.9602 66.6097 14.2756L63.7269 14.1733C63.8121 13.5767 64.0316 13.044 64.3853 12.5753C64.7433 12.1023 65.2333 11.7315 65.8555 11.4631C66.4819 11.1903 67.234 11.054 68.1119 11.054C68.7383 11.054 69.3157 11.1286 69.8441 11.2777C70.3725 11.4226 70.8327 11.6357 71.2248 11.9169C71.6168 12.1939 71.9194 12.5348 72.1325 12.9396C72.3498 13.3445 72.4585 13.8068 72.4585 14.3267V21H69.5181V19.6321H69.4414C69.2667 19.9645 69.043 20.2457 68.7702 20.4759C68.5018 20.706 68.1843 20.8786 67.8178 20.9936C67.4556 21.1087 67.0465 21.1662 66.5906 21.1662ZM67.5558 19.1207C67.8924 19.1207 68.195 19.0526 68.4634 18.9162C68.7362 18.7798 68.9535 18.5923 69.1154 18.3537C69.2773 18.1108 69.3583 17.8295 69.3583 17.5099V16.5767C69.2688 16.6236 69.1602 16.6662 69.0323 16.7045C68.9087 16.7429 68.7724 16.7791 68.6232 16.8132C68.4741 16.8473 68.3207 16.8771 68.163 16.9027C68.0053 16.9283 67.854 16.9517 67.7092 16.973C67.4151 17.0199 67.1637 17.0923 66.9549 17.1903C66.7504 17.2884 66.5927 17.4162 66.4819 17.5739C66.3754 17.7273 66.3221 17.9105 66.3221 18.1236C66.3221 18.4474 66.4371 18.6946 66.6673 18.8651C66.9016 19.0355 67.1978 19.1207 67.5558 19.1207ZM74.3697 21V7.90909H77.5337V13.1634H82.6921V7.90909H85.8498V21H82.6921V15.7393H77.5337V21H74.3697ZM95.7543 7.90909H98.9119V16.353C98.9119 17.3288 98.6797 18.179 98.2152 18.9034C97.7507 19.6236 97.103 20.1818 96.272 20.5781C95.4411 20.9702 94.4759 21.1662 93.3764 21.1662C92.2642 21.1662 91.2926 20.9702 90.4616 20.5781C89.6307 20.1818 88.9851 19.6236 88.5249 18.9034C88.0646 18.179 87.8345 17.3288 87.8345 16.353V7.90909H90.9986V16.0781C90.9986 16.5298 91.0966 16.9325 91.2926 17.2862C91.4929 17.6399 91.772 17.9169 92.13 18.1172C92.4879 18.3175 92.9034 18.4176 93.3764 18.4176C93.8494 18.4176 94.2628 18.3175 94.6165 18.1172C94.9744 17.9169 95.2536 17.6399 95.4538 17.2862C95.6541 16.9325 95.7543 16.5298 95.7543 16.0781V7.90909ZM100.895 21V7.90909H106.354C107.334 7.90909 108.154 8.04758 108.815 8.32457C109.48 8.60156 109.978 8.98935 110.311 9.48793C110.647 9.98651 110.816 10.5639 110.816 11.2202C110.816 11.7188 110.711 12.1641 110.502 12.5561C110.294 12.9439 110.006 13.2656 109.639 13.5213C109.273 13.777 108.849 13.956 108.367 14.0582V14.1861C108.896 14.2116 109.384 14.3544 109.831 14.6143C110.283 14.8743 110.645 15.2365 110.918 15.701C111.191 16.1612 111.327 16.7067 111.327 17.3374C111.327 18.0405 111.148 18.669 110.79 19.223C110.432 19.7727 109.914 20.2074 109.237 20.527C108.559 20.8423 107.737 21 106.769 21H100.895ZM104.059 18.4496H106.015C106.701 18.4496 107.206 18.3196 107.53 18.0597C107.858 17.7997 108.022 17.4375 108.022 16.973C108.022 16.6364 107.943 16.3466 107.786 16.1037C107.628 15.8565 107.404 15.6669 107.115 15.5348C106.825 15.3984 106.477 15.3303 106.073 15.3303H104.059V18.4496ZM104.059 13.2912H105.811C106.156 13.2912 106.463 13.2337 106.731 13.1186C106.999 13.0036 107.208 12.8374 107.357 12.62C107.511 12.4027 107.588 12.1406 107.588 11.8338C107.588 11.3949 107.432 11.0497 107.121 10.7983C106.81 10.5469 106.39 10.4212 105.862 10.4212H104.059V13.2912Z" fill="white"/>
</svg>
